<svg width="24" height="24" viewBox="0 0 24 24" fill="none" xmlns="http://www.w3.org/2000/svg">
<path d="M22.1438 10.0266H13.2141C12.8203 10.0266 12.5016 10.3454 12.5016 10.7391V13.5938C12.5016 13.9875 12.8203 14.3063 13.2141 14.3063H18.2438C17.6953 15.736 16.6641 16.9313 15.3563 17.6907L17.4985 21.4032C20.9344 19.4157 22.9688 15.9235 22.9688 12.0188C22.9688 11.461 22.9266 11.0625 22.8469 10.6172C22.7813 10.275 22.486 10.0266 22.1438 10.0266Z" fill="#167EE6"/>
<path d="M12.0235 18.5906C9.56255 18.5906 7.41567 17.2453 6.26255 15.2578L2.55005 17.3953C4.43911 20.6719 7.97817 22.875 12.0235 22.875C14.011 22.875 15.8813 22.3406 17.4985 21.4078V21.4031L15.3563 17.6906C14.3719 18.2625 13.2375 18.5906 12.0235 18.5906Z" fill="#12B347"/>
<path d="M17.4938 21.4079V21.4032L15.3516 17.6907C14.3719 18.2579 13.2375 18.5907 12.0234 18.5907V22.875C14.0109 22.875 15.8813 22.3407 17.4938 21.4079Z" fill="#0F993E"/>
<path d="M5.3625 11.9297C5.3625 10.7157 5.69531 9.5813 6.2625 8.60161L2.55 6.46411C1.6125 8.07192 1.07812 9.93755 1.07812 11.9297C1.07812 13.9219 1.6125 15.7875 2.55 17.3954L6.2625 15.2579C5.69063 14.2782 5.3625 13.1438 5.3625 11.9297Z" fill="#FFD500"/>
<path d="M12.0235 5.26875C13.6266 5.26875 15.1032 5.84063 16.2516 6.7875C16.5376 7.02188 16.9501 7.00312 17.2079 6.74531L19.2282 4.725C19.5235 4.42969 19.5 3.94688 19.186 3.675C17.2594 1.99688 14.7516 0.984375 12.0235 0.984375C7.97817 0.984375 4.43911 3.1875 2.55005 6.46406L6.26255 8.60156C7.41567 6.61406 9.56255 5.26875 12.0235 5.26875Z" fill="#FF4B26"/>
<path d="M16.2516 6.7875C16.5375 7.02188 16.95 7.00312 17.2078 6.74531L19.2281 4.725C19.5234 4.42969 19.5 3.94688 19.1859 3.675C17.2594 1.99688 14.7516 0.984375 12.0234 0.984375V5.26875C13.6266 5.26875 15.1031 5.83594 16.2516 6.7875Z" fill="#D93F21"/>
</svg>
